<?xml version="1.0" encoding="utf-8"?>
<!DOCTYPE svg PUBLIC "-//W3C//DTD SVG 1.1//EN" "http://www.w3.org/Graphics/SVG/1.1/DTD/svg11.dtd">
<svg version="1.1" xmlns="http://www.w3.org/2000/svg" width="164px" height="158.75px">
<path fill="#97031B" stroke="#97031B" stroke-width="3" stroke-miterlimit="10" d="M7.946,82.235
	c-0.036-0.949-0.054-1.903-0.054-2.861c0-40.868,33.125-73.995,73.995-73.995c40.862,0,73.994,33.127,73.994,73.995
	c0,40.872-33.132,73.997-73.994,73.997C41.975,153.371,9.449,121.781,7.946,82.235"/>
<circle fill="#FFFFFF" cx="81.887" cy="79.374" r="44.399"/>
<path d="M74.737,66.706h16.434v5.522H80.038l-0.593,3.739c0.77-0.363,1.531-0.635,2.283-0.815c0.754-0.182,1.498-0.273,2.234-0.273
	c2.492,0,4.514,0.754,6.066,2.262c1.553,1.506,2.328,3.402,2.328,5.693c0,1.609-0.398,3.154-1.197,4.641
	c-0.799,1.482-1.932,2.617-3.396,3.398c-1.47,0.779-3.348,1.172-5.636,1.172c-1.643,0-3.05-0.158-4.223-0.471
	c-1.173-0.311-2.17-0.775-2.991-1.393c-0.82-0.617-1.486-1.314-1.996-2.098c-0.511-0.781-0.937-1.756-1.275-2.924l7.004-0.764
	c0.168,1.121,0.563,1.971,1.188,2.553c0.625,0.586,1.365,0.881,2.227,0.881c0.965,0,1.76-0.369,2.389-1.1
	c0.628-0.732,0.943-1.818,0.943-3.27c0-1.486-0.317-2.572-0.951-3.264c-0.637-0.693-1.479-1.038-2.532-1.038
	c-0.67,0-1.313,0.164-1.938,0.492c-0.465,0.239-0.975,0.668-1.528,1.293l-5.896-0.85L74.737,66.706z"/>
<path fill="none" stroke="#FFFFFF" stroke-width="3" stroke-miterlimit="10" d="M9.479,92.613	c-0.637-3.486-1.018-6.962-1.154-10.405"/>
<path fill="none" stroke="#FFFFFF" stroke-width="3" stroke-miterlimit="10" d="M9.479,66.135	c-0.637,3.486-1.018,6.962-1.154,10.405"/>
<path fill="none" stroke="#FFFFFF" stroke-width="3" stroke-miterlimit="10" d="M57.149,148.701c-3.338-1.19-6.538-2.6-9.588-4.203"/>
<path fill="none" stroke="#FFFFFF" stroke-width="3" stroke-miterlimit="10" d="M34.218,135.463c2.7,2.295,5.52,4.361,8.434,6.201"/>
<path fill="none" stroke="#FFFFFF" stroke-width="3" stroke-miterlimit="10" d="M57.149,10.047c-3.338,1.19-6.538,2.6-9.588,4.203"/>
<path fill="none" stroke="#FFFFFF" stroke-width="3" stroke-miterlimit="10" d="M34.218,23.285c2.7-2.295,5.52-4.361,8.434-6.201"/>
<path fill="none" stroke="#FFFFFF" stroke-width="3" stroke-miterlimit="10" d="M154.296,92.613 c0.638-3.486,1.018-6.962,1.153-10.405"/>
<path fill="none" stroke="#FFFFFF" stroke-width="3" stroke-miterlimit="10" d="M154.296,66.135 c0.638,3.486,1.018,6.962,1.153,10.405"/>
<path fill="none" stroke="#FFFFFF" stroke-width="3" stroke-miterlimit="10" d="M106.625,148.701c3.338-1.19,6.539-2.6,9.588-4.203"/>
<path fill="none" stroke="#FFFFFF" stroke-width="3" stroke-miterlimit="10" d="M129.557,135.463 c-2.701,2.295-5.52,4.361-8.434,6.201"/>
<path fill="none" stroke="#FFFFFF" stroke-width="3" stroke-miterlimit="10" d="M106.625,10.047c3.338,1.19,6.539,2.6,9.588,4.203"/>
<path fill="none" stroke="#FFFFFF" stroke-width="3" stroke-miterlimit="10" d="M129.557,23.285 c-2.701-2.295-5.52-4.361-8.434-6.201"/>
</svg>